{"asset":{"generator":"glTF-Transform v2.0.5","version":"2.0"},"accessors":[{"type":"SCALAR","componentType":5123,"count":24,"normalized":false,"byteOffset":0,"bufferView":0},{"type":"VEC2","componentType":5126,"count":8,"normalized":false,"byteOffset":0,"bufferView":1},{"type":"SCALAR","componentType":5123,"count":18,"normalized":false,"byteOffset":48,"bufferView":0},{"type":"VEC2","componentType":5126,"count":12,"normalized":false,"byteOffset":64,"bufferView":1},{"type":"SCALAR","componentType":5123,"count":6,"normalized":false,"byteOffset":84,"bufferView":0},{"type":"SCALAR","componentType":5123,"count":1440,"normalized":false,"byteOffset":96,"bufferView":0},{"type":"VEC2","componentType":5126,"count":569,"normalized":false,"byteOffset":160,"bufferView":1},{"type":"SCALAR","componentType":5123,"count":60,"normalized":false,"byteOffset":2976,"bufferView":0},{"type":"SCALAR","componentType":5123,"count":2508,"normalized":false,"byteOffset":3096,"bufferView":0},{"type":"VEC2","componentType":5126,"count":1128,"normalized":false,"byteOffset":4712,"bufferView":1},{"type":"VEC2","componentType":5126,"count":1128,"normalized":false,"byteOffset":13736,"bufferView":1},{"type":"SCALAR","componentType":5123,"count":90,"normalized":false,"byteOffset":8112,"bufferView":0},{"type":"VEC2","componentType":5126,"count":54,"normalized":false,"byteOffset":22760,"bufferView":1},{"type":"SCALAR","componentType":5123,"count":115833,"normalized":false,"byteOffset":8292,"bufferView":0},{"type":"VEC2","componentType":5126,"count":30354,"normalized":false,"byteOffset":23192,"bufferView":1},{"type":"VEC2","componentType":5126,"count":30354,"normalized":false,"byteOffset":266024,"bufferView":1},{"type":"VEC3","componentType":5122,"count":8,"max":[-4308,32643,-14005],"min":[-6804,27631,-14005],"normalized":true,"byteOffset":508856,"bufferView":1},{"type":"VEC3","componentType":5120,"count":8,"normalized":true,"byteOffset":0,"bufferView":2},{"type":"VEC2","componentType":5123,"count":8,"normalized":true,"byteOffset":32,"bufferView":2},{"type":"VEC3","componentType":5122,"count":12,"max":[-4168,32767,-14005],"min":[-6944,26611,-14005],"normalized":true,"byteOffset":508920,"bufferView":1},{"type":"VEC3","componentType":5120,"count":12,"normalized":true,"byteOffset":64,"bufferView":2},{"type":"VEC2","componentType":5123,"count":12,"normalized":true,"byteOffset":112,"bufferView":2},{"type":"VEC3","componentType":5122,"count":6,"max":[-4168,27631,-14005],"min":[-6944,26611,-14005],"normalized":true,"byteOffset":509016,"bufferView":1},{"type":"VEC3","componentType":5120,"count":6,"normalized":true,"byteOffset":160,"bufferView":2},{"type":"VEC2","componentType":5123,"count":6,"normalized":true,"byteOffset":184,"bufferView":2},{"type":"VEC2","componentType":5123,"count":6,"normalized":true,"byteOffset":208,"bufferView":2},{"type":"VEC3","componentType":5122,"count":569,"max":[-824,32275,-6512],"min":[-11037,21766,-10713],"normalized":true,"byteOffset":509064,"bufferView":1},{"type":"VEC3","componentType":5120,"count":569,"normalized":true,"byteOffset":232,"bufferView":2},{"type":"VEC2","componentType":5123,"count":569,"normalized":true,"byteOffset":2508,"bufferView":2},{"type":"VEC3","componentType":5122,"count":22,"max":[-2192,30747,-8205],"min":[-4608,28947,-9377],"normalized":true,"byteOffset":513616,"bufferView":1},{"type":"VEC3","componentType":5120,"count":22,"normalized":true,"byteOffset":4784,"bufferView":2},{"type":"VEC2","componentType":5123,"count":22,"normalized":true,"byteOffset":4872,"bufferView":2},{"type":"VEC2","componentType":5123,"count":22,"normalized":true,"byteOffset":4960,"bufferView":2},{"type":"VEC3","componentType":5122,"count":1128,"max":[-824,29147,-6516],"min":[-10189,25263,-11381],"normalized":true,"byteOffset":513792,"bufferView":1},{"type":"VEC3","componentType":5120,"count":1128,"normalized":true,"byteOffset":5048,"bufferView":2},{"type":"VEC3","componentType":5122,"count":54,"max":[-6640,30815,-7192],"min":[-9389,28667,-9629],"normalized":true,"byteOffset":522816,"bufferView":1},{"type":"VEC3","componentType":5120,"count":54,"normalized":true,"byteOffset":9560,"bufferView":2},{"type":"VEC2","componentType":5123,"count":54,"normalized":true,"byteOffset":9776,"bufferView":2},{"type":"VEC3","componentType":5122,"count":30354,"max":[30863,32127,26711],"min":[-30863,-32767,-26711],"normalized":true,"byteOffset":523248,"bufferView":1},{"type":"VEC3","componentType":5120,"count":30354,"normalized":true,"byteOffset":9992,"bufferView":2}],"bufferViews":[{"buffer":1,"byteOffset":0,"byteLength":239958,"target":34963,"extensions":{"EXT_meshopt_compression":{"buffer":0,"byteOffset":0,"byteLength":43949,"mode":"TRIANGLES","byteStride":2,"count":119979}}},{"buffer":1,"byteOffset":239960,"byteLength":766080,"target":34962,"byteStride":8,"extensions":{"EXT_meshopt_compression":{"buffer":0,"byteOffset":43952,"byteLength":408500,"mode":"ATTRIBUTES","byteStride":8,"count":95760}}},{"buffer":1,"byteOffset":1006040,"byteLength":131408,"target":34962,"byteStride":4,"extensions":{"EXT_meshopt_compression":{"buffer":0,"byteOffset":452452,"byteLength":95950,"mode":"ATTRIBUTES","byteStride":4,"count":32852}}}],"samplers":[{"magFilter":9729,"minFilter":9987,"wrapS":10497,"wrapT":10497}],"textures":[{"source":1,"sampler":0},{"source":0,"sampler":0},{"source":2,"sampler":0},{"source":3,"sampler":0},{"source":4,"sampler":0},{"source":5,"sampler":0},{"source":6,"sampler":0},{"source":7,"sampler":0},{"source":8,"sampler":0}],"images":[{"name":"Grau_Corsair_Normal","mimeType":"image/jpeg","uri":"sss/Grau_Corsair_Normal.jpg"},{"name":"Grau_Corsairl","mimeType":"image/jpeg","uri":"sss/Grau_Corsairl.jpg"},{"name":"Grau_Corsairl-1","mimeType":"image/jpeg","uri":"sss/Grau_Corsairl-1.jpg"},{"name":"123","mimeType":"image/jpeg","uri":"sss/123.jpg"},{"name":"ssss","mimeType":"image/jpeg","uri":"sss/ssss.jpg"},{"name":"P1","mimeType":"image/jpeg","uri":"sss/P1.jpg"},{"name":"PPPP","mimeType":"image/jpeg","uri":"sss/PPPP.jpg"},{"name":"PPPPPP","mimeType":"image/jpeg","uri":"sss/PPPPPP.jpg"},{"name":"666","mimeType":"image/jpeg","uri":"sss/666.jpg"}],"buffers":[{"uri":"sss.bin","byteLength":548404},{"byteLength":1137448,"extensions":{"EXT_meshopt_compression":{"fallback":true}}}],"materials":[{"name":"Used aluminum","doubleSided":true,"pbrMetallicRoughness":{"baseColorTexture":{"index":0},"metallicRoughnessTexture":{"index":2}},"normalTexture":{"index":1,"scale":6.09999942779541}},{"name":"0NULL.003","doubleSided":true,"pbrMetallicRoughness":{"roughnessFactor":0,"metallicFactor":0.9488636255264282,"baseColorTexture":{"index":3}}},{"name":"Material.014","doubleSided":true,"pbrMetallicRoughness":{"roughnessFactor":0,"metallicFactor":0.8700000047683716,"baseColorTexture":{"index":4}}},{"name":"Material.008","doubleSided":true,"pbrMetallicRoughness":{"roughnessFactor":0,"metallicFactor":0.949999988079071,"baseColorTexture":{"index":5}}},{"name":"Material.009","doubleSided":true,"pbrMetallicRoughness":{"roughnessFactor":0,"metallicFactor":0.949999988079071,"baseColorTexture":{"index":6}}},{"name":"0NULL.001","doubleSided":true,"pbrMetallicRoughness":{"roughnessFactor":0,"metallicFactor":0.9488636255264282,"baseColorTexture":{"index":3}}},{"name":"Material.011","doubleSided":true,"pbrMetallicRoughness":{"roughnessFactor":0,"metallicFactor":0.949999988079071,"baseColorTexture":{"index":7}}},{"name":"0NULL.002","doubleSided":true,"pbrMetallicRoughness":{"roughnessFactor":0,"metallicFactor":0.9488636255264282,"baseColorTexture":{"index":8}}}],"meshes":[{"name":"Plane.001","primitives":[{"attributes":{"TEXCOORD_0":1,"POSITION":16,"NORMAL":17,"TEXCOORD_1":18},"mode":4,"material":0,"indices":0},{"attributes":{"TEXCOORD_0":3,"POSITION":19,"NORMAL":20,"TEXCOORD_1":21},"mode":4,"material":1,"indices":2},{"attributes":{"POSITION":22,"NORMAL":23,"TEXCOORD_0":24,"TEXCOORD_1":25},"mode":4,"material":2,"indices":4},{"attributes":{"TEXCOORD_0":6,"POSITION":26,"NORMAL":27,"TEXCOORD_1":28},"mode":4,"material":3,"indices":5},{"attributes":{"POSITION":29,"NORMAL":30,"TEXCOORD_0":31,"TEXCOORD_1":32},"mode":4,"material":4,"indices":7},{"attributes":{"TEXCOORD_0":9,"TEXCOORD_1":10,"POSITION":33,"NORMAL":34},"mode":4,"material":5,"indices":8},{"attributes":{"TEXCOORD_0":12,"POSITION":35,"NORMAL":36,"TEXCOORD_1":37},"mode":4,"material":6,"indices":11},{"attributes":{"TEXCOORD_0":14,"TEXCOORD_1":15,"POSITION":38,"NORMAL":39},"mode":4,"material":7,"indices":13}]}],"nodes":[{"name":"Plane","translation":[0.8511548042297363,-4.147920668125153,6.41061806678772],"scale":[4.385741174221039,4.385741174221039,4.385741174221039],"mesh":0}],"scenes":[{"name":"Scene","nodes":[0]}],"scene":0,"extensionsUsed":["KHR_mesh_quantization","EXT_meshopt_compression"],"extensionsRequired":["KHR_mesh_quantization","EXT_meshopt_compression"]}