{
    "asset" : {
        "generator" : "Khronos glTF Blender I/O v1.7.33",
        "version" : "2.0"
    },
    "scene" : 0,
    "scenes" : [
        {
            "name" : "Scene",
            "nodes" : [
                0
            ]
        }
    ],
    "nodes" : [
        {
            "mesh" : 0,
            "name" : "GP_Layer",
            "scale" : [
                0.563306450843811,
                0.563306450843811,
                0.563306450843811
            ],
            "translation" : [
                0.32641032338142395,
                0.37466710805892944,
                3.398289680480957
            ]
        }
    ],
    "materials" : [
        {
            "doubleSided" : true,
            "name" : "0NULL",
            "pbrMetallicRoughness" : {
                "baseColorTexture" : {
                    "index" : 0
                },
                "metallicFactor" : 0,
                "roughnessFactor" : 0
            }
        }
    ],
    "meshes" : [
        {
            "name" : "GP_Layer.001",
            "primitives" : [
                {
                    "attributes" : {
                        "POSITION" : 0,
                        "NORMAL" : 1,
                        "TEXCOORD_0" : 2
                    },
                    "indices" : 3,
                    "material" : 0
                }
            ]
        }
    ],
    "textures" : [
        {
            "sampler" : 0,
            "source" : 0
        }
    ],
    "images" : [
        {
            "mimeType" : "image/png",
            "name" : "Untitled",
            "uri" : "me/Untitled.png"
        }
    ],
    "accessors" : [
        {
            "bufferView" : 0,
            "componentType" : 5126,
            "count" : 66783,
            "max" : [
                38.80397415161133,
                22.070669174194336,
                35.418235778808594
            ],
            "min" : [
                -35.63948440551758,
                -22.298158645629883,
                -29.371845245361328
            ],
            "type" : "VEC3"
        },
        {
            "bufferView" : 1,
            "componentType" : 5126,
            "count" : 66783,
            "type" : "VEC3"
        },
        {
            "bufferView" : 2,
            "componentType" : 5126,
            "count" : 66783,
            "type" : "VEC2"
        },
        {
            "bufferView" : 3,
            "componentType" : 5125,
            "count" : 210753,
            "type" : "SCALAR"
        }
    ],
    "bufferViews" : [
        {
            "buffer" : 0,
            "byteLength" : 801396,
            "byteOffset" : 0
        },
        {
            "buffer" : 0,
            "byteLength" : 801396,
            "byteOffset" : 801396
        },
        {
            "buffer" : 0,
            "byteLength" : 534264,
            "byteOffset" : 1602792
        },
        {
            "buffer" : 0,
            "byteLength" : 843012,
            "byteOffset" : 2137056
        }
    ],
    "samplers" : [
        {
            "magFilter" : 9729,
            "minFilter" : 9987
        }
    ],
    "buffers" : [
        {
            "byteLength" : 2980068,
            "uri" : "me.bin"
        }
    ]
}
