{
    "asset" : {
        "generator" : "Khronos glTF Blender I/O v1.7.33",
        "version" : "2.0"
    },
    "scene" : 0,
    "scenes" : [
        {
            "name" : "Scene",
            "nodes" : [
                0
            ]
        }
    ],
    "nodes" : [
        {
            "mesh" : 0,
            "name" : "drawsel",
            "scale" : [
                0.5633065104484558,
                0.5633065104484558,
                0.5633065104484558
            ],
            "translation" : [
                0.32641032338142395,
                0.37466710805892944,
                3.398289680480957
            ]
        }
    ],
    "materials" : [
        {
            "alphaMode" : "BLEND",
            "doubleSided" : true,
            "name" : "gettyimages-462625461",
            "pbrMetallicRoughness" : {
                "baseColorTexture" : {
                    "index" : 0
                },
                "metallicFactor" : 0
            }
        },
        {
            "doubleSided" : true,
            "name" : "Material.007",
            "pbrMetallicRoughness" : {
                "baseColorTexture" : {
                    "index" : 1
                },
                "metallicFactor" : 0,
                "roughnessFactor" : 0.5
            }
        },
        {
            "doubleSided" : true,
            "name" : "Material.015",
            "normalTexture" : {
                "index" : 2
            },
            "pbrMetallicRoughness" : {
                "baseColorTexture" : {
                    "index" : 3
                },
                "metallicFactor" : 0.9399999976158142,
                "roughnessFactor" : 0
            }
        },
        {
            "doubleSided" : true,
            "name" : "fabric",
            "normalTexture" : {
                "index" : 4,
                "scale" : 1.2999999523162842
            },
            "pbrMetallicRoughness" : {
                "baseColorTexture" : {
                    "index" : 5
                },
                "metallicFactor" : 0,
                "roughnessFactor" : 0.5
            }
        },
        {
            "doubleSided" : true,
            "name" : "shoe",
            "pbrMetallicRoughness" : {
                "baseColorTexture" : {
                    "index" : 6
                },
                "metallicFactor" : 0.9318181872367859,
                "roughnessFactor" : 0.0714285671710968
            }
        },
        {
            "doubleSided" : true,
            "name" : "0NULL",
            "pbrMetallicRoughness" : {
                "baseColorTexture" : {
                    "index" : 7
                },
                "metallicFactor" : 0.9488636255264282,
                "roughnessFactor" : 0
            }
        },
        {
            "doubleSided" : true,
            "name" : "Material.005",
            "pbrMetallicRoughness" : {
                "baseColorTexture" : {
                    "index" : 8
                },
                "metallicFactor" : 0.8806817531585693,
                "roughnessFactor" : 0
            }
        },
        {
            "doubleSided" : true,
            "name" : "Material.006",
            "pbrMetallicRoughness" : {
                "baseColorTexture" : {
                    "index" : 9
                },
                "metallicFactor" : 0.9800000190734863,
                "roughnessFactor" : 0.191729336977005
            }
        }
    ],
    "meshes" : [
        {
            "name" : "gettyimages-462625461.006",
            "primitives" : [
                {
                    "attributes" : {
                        "POSITION" : 0,
                        "NORMAL" : 1,
                        "TEXCOORD_0" : 2,
                        "TEXCOORD_1" : 3
                    },
                    "indices" : 4,
                    "material" : 0
                },
                {
                    "attributes" : {
                        "POSITION" : 5,
                        "NORMAL" : 6,
                        "TEXCOORD_0" : 7,
                        "TEXCOORD_1" : 8
                    },
                    "indices" : 9,
                    "material" : 1
                },
                {
                    "attributes" : {
                        "POSITION" : 10,
                        "NORMAL" : 11,
                        "TEXCOORD_0" : 12,
                        "TEXCOORD_1" : 13
                    },
                    "indices" : 14,
                    "material" : 2
                },
                {
                    "attributes" : {
                        "POSITION" : 15,
                        "NORMAL" : 16,
                        "TEXCOORD_0" : 17,
                        "TEXCOORD_1" : 18
                    },
                    "indices" : 19,
                    "material" : 3
                },
                {
                    "attributes" : {
                        "POSITION" : 20,
                        "NORMAL" : 21,
                        "TEXCOORD_0" : 22,
                        "TEXCOORD_1" : 23
                    },
                    "indices" : 24,
                    "material" : 4
                },
                {
                    "attributes" : {
                        "POSITION" : 25,
                        "NORMAL" : 26,
                        "TEXCOORD_0" : 27,
                        "TEXCOORD_1" : 28
                    },
                    "indices" : 29,
                    "material" : 5
                },
                {
                    "attributes" : {
                        "POSITION" : 30,
                        "NORMAL" : 31,
                        "TEXCOORD_0" : 32,
                        "TEXCOORD_1" : 33
                    },
                    "indices" : 34,
                    "material" : 6
                },
                {
                    "attributes" : {
                        "POSITION" : 35,
                        "NORMAL" : 36,
                        "TEXCOORD_0" : 37,
                        "TEXCOORD_1" : 38
                    },
                    "indices" : 39,
                    "material" : 7
                }
            ]
        }
    ],
    "textures" : [
        {
            "sampler" : 0,
            "source" : 0
        },
        {
            "sampler" : 1,
            "source" : 1
        },
        {
            "sampler" : 1,
            "source" : 2
        },
        {
            "sampler" : 1,
            "source" : 2
        },
        {
            "sampler" : 1,
            "source" : 3
        },
        {
            "sampler" : 1,
            "source" : 4
        },
        {
            "sampler" : 1,
            "source" : 5
        },
        {
            "sampler" : 1,
            "source" : 6
        },
        {
            "sampler" : 1,
            "source" : 7
        },
        {
            "sampler" : 1,
            "source" : 8
        }
    ],
    "images" : [
        {
            "mimeType" : "image/png",
            "name" : "gettyimages-462625461",
            "uri" : "mo/gettyimages-462625461.png"
        },
        {
            "mimeType" : "image/png",
            "name" : "Untitled",
            "uri" : "mo/Untitled.png"
        },
        {
            "mimeType" : "image/png",
            "name" : "download (1)",
            "uri" : "mo/download%201.png"
        },
        {
            "mimeType" : "image/jpeg",
            "name" : "BORM",
            "uri" : "mo/BORM.jpg"
        },
        {
            "mimeType" : "image/jpeg",
            "name" : "DDDD",
            "uri" : "mo/DDDD.jpg"
        },
        {
            "mimeType" : "image/png",
            "name" : "Untitled.003",
            "uri" : "mo/Untitled_003.png"
        },
        {
            "mimeType" : "image/png",
            "name" : "123",
            "uri" : "mo/123.png"
        },
        {
            "mimeType" : "image/png",
            "name" : "Untitled",
            "uri" : "mo/Untitled-1.png"
        },
        {
            "mimeType" : "image/png",
            "name" : "Untitled",
            "uri" : "mo/Untitled-2.png"
        }
    ],
    "accessors" : [
        {
            "bufferView" : 0,
            "componentType" : 5126,
            "count" : 8,
            "max" : [
                0.22991511225700378,
                -2.2032155990600586,
                2.078932762145996
            ],
            "min" : [
                -2.709805965423584,
                -3.7481462955474854,
                -0.8629218339920044
            ],
            "type" : "VEC3"
        },
        {
            "bufferView" : 1,
            "componentType" : 5126,
            "count" : 8,
            "type" : "VEC3"
        },
        {
            "bufferView" : 2,
            "componentType" : 5126,
            "count" : 8,
            "type" : "VEC2"
        },
        {
            "bufferView" : 3,
            "componentType" : 5126,
            "count" : 8,
            "type" : "VEC2"
        },
        {
            "bufferView" : 4,
            "componentType" : 5123,
            "count" : 12,
            "type" : "SCALAR"
        },
        {
            "bufferView" : 5,
            "componentType" : 5126,
            "count" : 8,
            "max" : [
                0.10081811994314194,
                0.4736103415489197,
                2.1056299209594727
            ],
            "min" : [
                -2.709805965423584,
                -2.670387029647827,
                -0.8458377122879028
            ],
            "type" : "VEC3"
        },
        {
            "bufferView" : 6,
            "componentType" : 5126,
            "count" : 8,
            "type" : "VEC3"
        },
        {
            "bufferView" : 7,
            "componentType" : 5126,
            "count" : 8,
            "type" : "VEC2"
        },
        {
            "bufferView" : 8,
            "componentType" : 5126,
            "count" : 8,
            "type" : "VEC2"
        },
        {
            "bufferView" : 9,
            "componentType" : 5123,
            "count" : 12,
            "type" : "SCALAR"
        },
        {
            "bufferView" : 10,
            "componentType" : 5126,
            "count" : 15656,
            "max" : [
                8.079300880432129,
                14.706443786621094,
                7.552298545837402
            ],
            "min" : [
                -7.105514049530029,
                -2.846829652786255,
                -5.292658805847168
            ],
            "type" : "VEC3"
        },
        {
            "bufferView" : 11,
            "componentType" : 5126,
            "count" : 15656,
            "type" : "VEC3"
        },
        {
            "bufferView" : 12,
            "componentType" : 5126,
            "count" : 15656,
            "type" : "VEC2"
        },
        {
            "bufferView" : 13,
            "componentType" : 5126,
            "count" : 15656,
            "type" : "VEC2"
        },
        {
            "bufferView" : 14,
            "componentType" : 5123,
            "count" : 92697,
            "type" : "SCALAR"
        },
        {
            "bufferView" : 15,
            "componentType" : 5126,
            "count" : 905,
            "max" : [
                2.306802272796631,
                5.369359970092773,
                2.8486013412475586
            ],
            "min" : [
                -3.59938383102417,
                -3.9850330352783203,
                -2.3914194107055664
            ],
            "type" : "VEC3"
        },
        {
            "bufferView" : 16,
            "componentType" : 5126,
            "count" : 905,
            "type" : "VEC3"
        },
        {
            "bufferView" : 17,
            "componentType" : 5126,
            "count" : 905,
            "type" : "VEC2"
        },
        {
            "bufferView" : 18,
            "componentType" : 5126,
            "count" : 905,
            "type" : "VEC2"
        },
        {
            "bufferView" : 19,
            "componentType" : 5123,
            "count" : 4842,
            "type" : "SCALAR"
        },
        {
            "bufferView" : 20,
            "componentType" : 5126,
            "count" : 6646,
            "max" : [
                -0.6334910988807678,
                0.7185367941856384,
                2.7783727645874023
            ],
            "min" : [
                -6.438732147216797,
                -3.9863839149475098,
                -1.3254481554031372
            ],
            "type" : "VEC3"
        },
        {
            "bufferView" : 21,
            "componentType" : 5126,
            "count" : 6646,
            "type" : "VEC3"
        },
        {
            "bufferView" : 22,
            "componentType" : 5126,
            "count" : 6646,
            "type" : "VEC2"
        },
        {
            "bufferView" : 23,
            "componentType" : 5126,
            "count" : 6646,
            "type" : "VEC2"
        },
        {
            "bufferView" : 24,
            "componentType" : 5123,
            "count" : 35784,
            "type" : "SCALAR"
        },
        {
            "bufferView" : 25,
            "componentType" : 5126,
            "count" : 115,
            "max" : [
                1.815742015838623,
                -2.0443460941314697,
                3.9764833450317383
            ],
            "min" : [
                -5.114549160003662,
                -7.379724502563477,
                -1.7936888933181763
            ],
            "type" : "VEC3"
        },
        {
            "bufferView" : 26,
            "componentType" : 5126,
            "count" : 115,
            "type" : "VEC3"
        },
        {
            "bufferView" : 27,
            "componentType" : 5126,
            "count" : 115,
            "type" : "VEC2"
        },
        {
            "bufferView" : 28,
            "componentType" : 5126,
            "count" : 115,
            "type" : "VEC2"
        },
        {
            "bufferView" : 29,
            "componentType" : 5123,
            "count" : 630,
            "type" : "SCALAR"
        },
        {
            "bufferView" : 30,
            "componentType" : 5126,
            "count" : 225,
            "max" : [
                -0.9048119783401489,
                -2.9430155754089355,
                4.414735317230225
            ],
            "min" : [
                -9.392040252685547,
                -4.545515060424805,
                0.36040574312210083
            ],
            "type" : "VEC3"
        },
        {
            "bufferView" : 31,
            "componentType" : 5126,
            "count" : 225,
            "type" : "VEC3"
        },
        {
            "bufferView" : 32,
            "componentType" : 5126,
            "count" : 225,
            "type" : "VEC2"
        },
        {
            "bufferView" : 33,
            "componentType" : 5126,
            "count" : 225,
            "type" : "VEC2"
        },
        {
            "bufferView" : 34,
            "componentType" : 5123,
            "count" : 1152,
            "type" : "SCALAR"
        },
        {
            "bufferView" : 35,
            "componentType" : 5126,
            "count" : 8101,
            "max" : [
                1.1876740455627441,
                -1.4037238359451294,
                2.148221015930176
            ],
            "min" : [
                -4.354563236236572,
                -3.3050570487976074,
                -0.528443455696106
            ],
            "type" : "VEC3"
        },
        {
            "bufferView" : 36,
            "componentType" : 5126,
            "count" : 8101,
            "type" : "VEC3"
        },
        {
            "bufferView" : 37,
            "componentType" : 5126,
            "count" : 8101,
            "type" : "VEC2"
        },
        {
            "bufferView" : 38,
            "componentType" : 5126,
            "count" : 8101,
            "type" : "VEC2"
        },
        {
            "bufferView" : 39,
            "componentType" : 5123,
            "count" : 38265,
            "type" : "SCALAR"
        }
    ],
    "bufferViews" : [
        {
            "buffer" : 0,
            "byteLength" : 96,
            "byteOffset" : 0
        },
        {
            "buffer" : 0,
            "byteLength" : 96,
            "byteOffset" : 96
        },
        {
            "buffer" : 0,
            "byteLength" : 64,
            "byteOffset" : 192
        },
        {
            "buffer" : 0,
            "byteLength" : 64,
            "byteOffset" : 256
        },
        {
            "buffer" : 0,
            "byteLength" : 24,
            "byteOffset" : 320
        },
        {
            "buffer" : 0,
            "byteLength" : 96,
            "byteOffset" : 344
        },
        {
            "buffer" : 0,
            "byteLength" : 96,
            "byteOffset" : 440
        },
        {
            "buffer" : 0,
            "byteLength" : 64,
            "byteOffset" : 536
        },
        {
            "buffer" : 0,
            "byteLength" : 64,
            "byteOffset" : 600
        },
        {
            "buffer" : 0,
            "byteLength" : 24,
            "byteOffset" : 664
        },
        {
            "buffer" : 0,
            "byteLength" : 187872,
            "byteOffset" : 688
        },
        {
            "buffer" : 0,
            "byteLength" : 187872,
            "byteOffset" : 188560
        },
        {
            "buffer" : 0,
            "byteLength" : 125248,
            "byteOffset" : 376432
        },
        {
            "buffer" : 0,
            "byteLength" : 125248,
            "byteOffset" : 501680
        },
        {
            "buffer" : 0,
            "byteLength" : 185394,
            "byteOffset" : 626928
        },
        {
            "buffer" : 0,
            "byteLength" : 10860,
            "byteOffset" : 812324
        },
        {
            "buffer" : 0,
            "byteLength" : 10860,
            "byteOffset" : 823184
        },
        {
            "buffer" : 0,
            "byteLength" : 7240,
            "byteOffset" : 834044
        },
        {
            "buffer" : 0,
            "byteLength" : 7240,
            "byteOffset" : 841284
        },
        {
            "buffer" : 0,
            "byteLength" : 9684,
            "byteOffset" : 848524
        },
        {
            "buffer" : 0,
            "byteLength" : 79752,
            "byteOffset" : 858208
        },
        {
            "buffer" : 0,
            "byteLength" : 79752,
            "byteOffset" : 937960
        },
        {
            "buffer" : 0,
            "byteLength" : 53168,
            "byteOffset" : 1017712
        },
        {
            "buffer" : 0,
            "byteLength" : 53168,
            "byteOffset" : 1070880
        },
        {
            "buffer" : 0,
            "byteLength" : 71568,
            "byteOffset" : 1124048
        },
        {
            "buffer" : 0,
            "byteLength" : 1380,
            "byteOffset" : 1195616
        },
        {
            "buffer" : 0,
            "byteLength" : 1380,
            "byteOffset" : 1196996
        },
        {
            "buffer" : 0,
            "byteLength" : 920,
            "byteOffset" : 1198376
        },
        {
            "buffer" : 0,
            "byteLength" : 920,
            "byteOffset" : 1199296
        },
        {
            "buffer" : 0,
            "byteLength" : 1260,
            "byteOffset" : 1200216
        },
        {
            "buffer" : 0,
            "byteLength" : 2700,
            "byteOffset" : 1201476
        },
        {
            "buffer" : 0,
            "byteLength" : 2700,
            "byteOffset" : 1204176
        },
        {
            "buffer" : 0,
            "byteLength" : 1800,
            "byteOffset" : 1206876
        },
        {
            "buffer" : 0,
            "byteLength" : 1800,
            "byteOffset" : 1208676
        },
        {
            "buffer" : 0,
            "byteLength" : 2304,
            "byteOffset" : 1210476
        },
        {
            "buffer" : 0,
            "byteLength" : 97212,
            "byteOffset" : 1212780
        },
        {
            "buffer" : 0,
            "byteLength" : 97212,
            "byteOffset" : 1309992
        },
        {
            "buffer" : 0,
            "byteLength" : 64808,
            "byteOffset" : 1407204
        },
        {
            "buffer" : 0,
            "byteLength" : 64808,
            "byteOffset" : 1472012
        },
        {
            "buffer" : 0,
            "byteLength" : 76530,
            "byteOffset" : 1536820
        }
    ],
    "samplers" : [
        {
            "magFilter" : 9729,
            "minFilter" : 9987,
            "wrapS" : 33071,
            "wrapT" : 33071
        },
        {
            "magFilter" : 9729,
            "minFilter" : 9987
        }
    ],
    "buffers" : [
        {
            "byteLength" : 1613352,
            "uri" : "mo.bin"
        }
    ]
}
