{
    "asset" : {
        "copyright" : "pol",
        "generator" : "Khronos glTF Blender I/O v1.7.33",
        "version" : "2.0"
    },
    "scene" : 0,
    "scenes" : [
        {
            "name" : "Scene",
            "nodes" : [
                0
            ]
        }
    ],
    "nodes" : [
        {
            "mesh" : 0,
            "name" : "Cylinder.001",
            "scale" : [
                0.5633065104484558,
                0.5633065104484558,
                0.5633065104484558
            ],
            "translation" : [
                0.32641032338142395,
                0.37466710805892944,
                3.398289680480957
            ]
        }
    ],
    "materials" : [
        {
            "doubleSided" : true,
            "name" : "Material.008",
            "pbrMetallicRoughness" : {
                "baseColorTexture" : {
                    "index" : 0
                },
                "metallicFactor" : 0.949999988079071,
                "roughnessFactor" : 0
            }
        },
        {
            "doubleSided" : true,
            "name" : "Material.009",
            "pbrMetallicRoughness" : {
                "baseColorTexture" : {
                    "index" : 1
                },
                "metallicFactor" : 0.949999988079071,
                "roughnessFactor" : 0
            }
        },
        {
            "doubleSided" : true,
            "name" : "0NULL",
            "pbrMetallicRoughness" : {
                "baseColorTexture" : {
                    "index" : 2
                },
                "metallicFactor" : 0.9488636255264282,
                "roughnessFactor" : 0
            }
        },
        {
            "doubleSided" : true,
            "name" : "Material.011",
            "pbrMetallicRoughness" : {
                "baseColorTexture" : {
                    "index" : 3
                },
                "metallicFactor" : 0.949999988079071,
                "roughnessFactor" : 0
            }
        },
        {
            "doubleSided" : true,
            "name" : "0NULL.001",
            "pbrMetallicRoughness" : {
                "baseColorTexture" : {
                    "index" : 4
                },
                "metallicFactor" : 0.9488636255264282,
                "roughnessFactor" : 0
            }
        }
    ],
    "meshes" : [
        {
            "name" : "Cylinder.001",
            "primitives" : [
                {
                    "attributes" : {
                        "POSITION" : 0,
                        "NORMAL" : 1,
                        "TEXCOORD_0" : 2,
                        "TEXCOORD_1" : 3
                    },
                    "indices" : 4,
                    "material" : 0
                },
                {
                    "attributes" : {
                        "POSITION" : 5,
                        "NORMAL" : 6,
                        "TEXCOORD_0" : 7,
                        "TEXCOORD_1" : 8
                    },
                    "indices" : 9,
                    "material" : 1
                },
                {
                    "attributes" : {
                        "POSITION" : 10,
                        "NORMAL" : 11,
                        "TEXCOORD_0" : 12,
                        "TEXCOORD_1" : 13
                    },
                    "indices" : 14,
                    "material" : 2
                },
                {
                    "attributes" : {
                        "POSITION" : 15,
                        "NORMAL" : 16,
                        "TEXCOORD_0" : 17,
                        "TEXCOORD_1" : 18
                    },
                    "indices" : 19,
                    "material" : 3
                },
                {
                    "attributes" : {
                        "POSITION" : 20,
                        "NORMAL" : 21,
                        "TEXCOORD_0" : 22,
                        "TEXCOORD_1" : 23
                    },
                    "indices" : 24,
                    "material" : 4
                }
            ]
        }
    ],
    "textures" : [
        {
            "sampler" : 0,
            "source" : 0
        },
        {
            "sampler" : 0,
            "source" : 1
        },
        {
            "sampler" : 0,
            "source" : 2
        },
        {
            "sampler" : 0,
            "source" : 3
        },
        {
            "sampler" : 0,
            "source" : 4
        }
    ],
    "images" : [
        {
            "mimeType" : "image/jpeg",
            "name" : "P1",
            "uri" : "pol/P1.jpg"
        },
        {
            "mimeType" : "image/png",
            "name" : "PPPP",
            "uri" : "pol/PPPP.png"
        },
        {
            "mimeType" : "image/png",
            "name" : "123",
            "uri" : "pol/123.png"
        },
        {
            "mimeType" : "image/png",
            "name" : "PPPPPP",
            "uri" : "pol/PPPPPP.png"
        },
        {
            "mimeType" : "image/png",
            "name" : "666",
            "uri" : "pol/666.png"
        }
    ],
    "accessors" : [
        {
            "bufferView" : 0,
            "componentType" : 5126,
            "count" : 480,
            "max" : [
                3.9398083686828613,
                8.543144226074219,
                1.6122817993164062
            ],
            "min" : [
                -5.217893600463867,
                -0.8823676109313965,
                -2.1521663665771484
            ],
            "type" : "VEC3"
        },
        {
            "bufferView" : 1,
            "componentType" : 5126,
            "count" : 480,
            "type" : "VEC3"
        },
        {
            "bufferView" : 2,
            "componentType" : 5126,
            "count" : 480,
            "type" : "VEC2"
        },
        {
            "bufferView" : 3,
            "componentType" : 5126,
            "count" : 480,
            "type" : "VEC2"
        },
        {
            "bufferView" : 4,
            "componentType" : 5123,
            "count" : 1440,
            "type" : "SCALAR"
        },
        {
            "bufferView" : 5,
            "componentType" : 5126,
            "count" : 22,
            "max" : [
                2.711679458618164,
                7.170605659484863,
                0.09619331359863281
            ],
            "min" : [
                0.5454511642456055,
                5.557627201080322,
                -0.955078125
            ],
            "type" : "VEC3"
        },
        {
            "bufferView" : 6,
            "componentType" : 5126,
            "count" : 22,
            "type" : "VEC3"
        },
        {
            "bufferView" : 7,
            "componentType" : 5126,
            "count" : 22,
            "type" : "VEC2"
        },
        {
            "bufferView" : 8,
            "componentType" : 5126,
            "count" : 22,
            "type" : "VEC2"
        },
        {
            "bufferView" : 9,
            "componentType" : 5123,
            "count" : 60,
            "type" : "SCALAR"
        },
        {
            "bufferView" : 10,
            "componentType" : 5126,
            "count" : 1006,
            "max" : [
                3.939732074737549,
                5.7355828285217285,
                1.6105194091796875
            ],
            "min" : [
                -4.457995414733887,
                2.2526016235351562,
                -2.75201416015625
            ],
            "type" : "VEC3"
        },
        {
            "bufferView" : 11,
            "componentType" : 5126,
            "count" : 1006,
            "type" : "VEC3"
        },
        {
            "bufferView" : 12,
            "componentType" : 5126,
            "count" : 1006,
            "type" : "VEC2"
        },
        {
            "bufferView" : 13,
            "componentType" : 5126,
            "count" : 1006,
            "type" : "VEC2"
        },
        {
            "bufferView" : 14,
            "componentType" : 5123,
            "count" : 2508,
            "type" : "SCALAR"
        },
        {
            "bufferView" : 15,
            "componentType" : 5126,
            "count" : 44,
            "max" : [
                -1.2763569355010986,
                7.232301712036133,
                1.004220962524414
            ],
            "min" : [
                -3.7413551807403564,
                5.306453704833984,
                -1.1810131072998047
            ],
            "type" : "VEC3"
        },
        {
            "bufferView" : 16,
            "componentType" : 5126,
            "count" : 44,
            "type" : "VEC3"
        },
        {
            "bufferView" : 17,
            "componentType" : 5126,
            "count" : 44,
            "type" : "VEC2"
        },
        {
            "bufferView" : 18,
            "componentType" : 5126,
            "count" : 44,
            "type" : "VEC2"
        },
        {
            "bufferView" : 19,
            "componentType" : 5123,
            "count" : 90,
            "type" : "SCALAR"
        },
        {
            "bufferView" : 20,
            "componentType" : 5126,
            "count" : 29481,
            "max" : [
                32.3544807434082,
                8.408843040466309,
                31.40528106689453
            ],
            "min" : [
                -22.9993896484375,
                -49.784095764160156,
                -16.498043060302734
            ],
            "type" : "VEC3"
        },
        {
            "bufferView" : 21,
            "componentType" : 5126,
            "count" : 29481,
            "type" : "VEC3"
        },
        {
            "bufferView" : 22,
            "componentType" : 5126,
            "count" : 29481,
            "type" : "VEC2"
        },
        {
            "bufferView" : 23,
            "componentType" : 5126,
            "count" : 29481,
            "type" : "VEC2"
        },
        {
            "bufferView" : 24,
            "componentType" : 5123,
            "count" : 115833,
            "type" : "SCALAR"
        }
    ],
    "bufferViews" : [
        {
            "buffer" : 0,
            "byteLength" : 5760,
            "byteOffset" : 0
        },
        {
            "buffer" : 0,
            "byteLength" : 5760,
            "byteOffset" : 5760
        },
        {
            "buffer" : 0,
            "byteLength" : 3840,
            "byteOffset" : 11520
        },
        {
            "buffer" : 0,
            "byteLength" : 3840,
            "byteOffset" : 15360
        },
        {
            "buffer" : 0,
            "byteLength" : 2880,
            "byteOffset" : 19200
        },
        {
            "buffer" : 0,
            "byteLength" : 264,
            "byteOffset" : 22080
        },
        {
            "buffer" : 0,
            "byteLength" : 264,
            "byteOffset" : 22344
        },
        {
            "buffer" : 0,
            "byteLength" : 176,
            "byteOffset" : 22608
        },
        {
            "buffer" : 0,
            "byteLength" : 176,
            "byteOffset" : 22784
        },
        {
            "buffer" : 0,
            "byteLength" : 120,
            "byteOffset" : 22960
        },
        {
            "buffer" : 0,
            "byteLength" : 12072,
            "byteOffset" : 23080
        },
        {
            "buffer" : 0,
            "byteLength" : 12072,
            "byteOffset" : 35152
        },
        {
            "buffer" : 0,
            "byteLength" : 8048,
            "byteOffset" : 47224
        },
        {
            "buffer" : 0,
            "byteLength" : 8048,
            "byteOffset" : 55272
        },
        {
            "buffer" : 0,
            "byteLength" : 5016,
            "byteOffset" : 63320
        },
        {
            "buffer" : 0,
            "byteLength" : 528,
            "byteOffset" : 68336
        },
        {
            "buffer" : 0,
            "byteLength" : 528,
            "byteOffset" : 68864
        },
        {
            "buffer" : 0,
            "byteLength" : 352,
            "byteOffset" : 69392
        },
        {
            "buffer" : 0,
            "byteLength" : 352,
            "byteOffset" : 69744
        },
        {
            "buffer" : 0,
            "byteLength" : 180,
            "byteOffset" : 70096
        },
        {
            "buffer" : 0,
            "byteLength" : 353772,
            "byteOffset" : 70276
        },
        {
            "buffer" : 0,
            "byteLength" : 353772,
            "byteOffset" : 424048
        },
        {
            "buffer" : 0,
            "byteLength" : 235848,
            "byteOffset" : 777820
        },
        {
            "buffer" : 0,
            "byteLength" : 235848,
            "byteOffset" : 1013668
        },
        {
            "buffer" : 0,
            "byteLength" : 231666,
            "byteOffset" : 1249516
        }
    ],
    "samplers" : [
        {
            "magFilter" : 9729,
            "minFilter" : 9987
        }
    ],
    "buffers" : [
        {
            "byteLength" : 1481184,
            "uri" : "pol.bin"
        }
    ]
}
